<svg id="visual" viewBox="0 0 400 1080" width="400" height="1080" xmlns="http://www.w3.org/2000/svg" xmlns:xlink="http://www.w3.org/1999/xlink" version="1.1"><path d="M126 1080L88 1080L88 926L65 926L65 771L36 771L36 617L35 617L35 463L102 463L102 309L38 309L38 154L158 154L158 0L400 0L400 154L400 154L400 309L400 309L400 463L400 463L400 617L400 617L400 771L400 771L400 926L400 926L400 1080L400 1080Z" fill="#b191ff"></path><path d="M220 1080L212 1080L212 926L126 926L126 771L103 771L103 617L157 617L157 463L170 463L170 309L194 309L194 154L244 154L244 0L400 0L400 154L400 154L400 309L400 309L400 463L400 463L400 617L400 617L400 771L400 771L400 926L400 926L400 1080L400 1080Z" fill="#c17eff"></path><path d="M244 1080L209 1080L209 926L276 926L276 771L276 771L276 617L314 617L314 463L265 463L265 309L257 309L257 154L194 154L194 0L400 0L400 154L400 154L400 309L400 309L400 463L400 463L400 617L400 617L400 771L400 771L400 926L400 926L400 1080L400 1080Z" fill="#d664ff"></path><path d="M309 1080L338 1080L338 926L333 926L333 771L281 771L281 617L356 617L356 463L377 463L377 309L277 309L277 154L349 154L349 0L400 0L400 154L400 154L400 309L400 309L400 463L400 463L400 617L400 617L400 771L400 771L400 926L400 926L400 1080L400 1080Z" fill="#f038ff"></path></svg>