<svg id="visual" viewBox="0 0 400 1080" width="400" height="1080" xmlns="http://www.w3.org/2000/svg" xmlns:xlink="http://www.w3.org/1999/xlink" version="1.1"><path d="M312 0L256 0L256 154L303 154L303 309L284 309L284 463L225 463L225 617L347 617L347 771L239 771L239 926L290 926L290 1080L0 1080L0 926L0 926L0 771L0 771L0 617L0 617L0 463L0 463L0 309L0 309L0 154L0 154L0 0L0 0Z" fill="#b191ff"></path><path d="M189 0L276 0L276 154L175 154L175 309L200 309L200 463L260 463L260 617L278 617L278 771L273 771L273 926L234 926L234 1080L0 1080L0 926L0 926L0 771L0 771L0 617L0 617L0 463L0 463L0 309L0 309L0 154L0 154L0 0L0 0Z" fill="#c17eff"></path><path d="M98 0L135 0L135 154L185 154L185 309L142 309L142 463L200 463L200 617L154 617L154 771L189 771L189 926L142 926L142 1080L0 1080L0 926L0 926L0 771L0 771L0 617L0 617L0 463L0 463L0 309L0 309L0 154L0 154L0 0L0 0Z" fill="#d664ff"></path><path d="M69 0L47 0L47 154L78 154L78 309L56 309L56 463L79 463L79 617L48 617L48 771L141 771L141 926L98 926L98 1080L0 1080L0 926L0 926L0 771L0 771L0 617L0 617L0 463L0 463L0 309L0 309L0 154L0 154L0 0L0 0Z" fill="#f038ff"></path></svg>